# xmcd
#
# Track frame offsets:
#	183
#	43448
#	57218
#	71468
#	83058
#	95703
#	108258
#	121683
#	133908
#	146668
#	160378
#	176763
#	192033
#	211393
#	230208
#	248913
#
# Disc length: 3632 seconds
#
# Revision: 0
# Processed by: cddbd v1.4PL0 Copyright (c) Steve Scherf et al.
# Submitted via: EasyCDDAExtractor 4.6.0.1
#
DISCID=ee0e2e10
DTITLE=Back Pop Power - Various
DYEAR=1900
DGENRE=Blues
TTITLE0=Gloria gaynor - I will survive/never can say../ reach out/i am what I 
TTITLE0=am (medley)
TTITLE1=Carol douglas -doctor's orders 
TTITLE2=Carol douglas - midnight love affair
TTITLE3=Carol douglas - light my fire
TTITLE4=Gladys knight - come see about me
TTITLE5=Gladys knight - really didn't mean it
TTITLE6=Gladys knight - stop and get a hold or myself
TTITLE7=Dionne warwick - monday, monday
TTITLE8=Dionne warwick - only love can greak a heart
TTITLE9=Dionne warwick - anyone who had a heart
TTITLE10=Nina simone - my baby just cares for me
TTITLE11=Nina simone - love me ore leave me
TTITLE12=Nina simone - little girl blue
TTITLE13=Claudia barry - sweet dynamite
TTITLE14=Claudia barry - why must a girl like me
TTITLE15=Claudia barry - work me over
EXTD=
EXTT0=
EXTT1=
EXTT2=
EXTT3=
EXTT4=
EXTT5=
EXTT6=
EXTT7=
EXTT8=
EXTT9=
EXTT10=
EXTT11=
EXTT12=
EXTT13=
EXTT14=
EXTT15=
PLAYORDER=
